<svg width="663" height="124" viewBox="0 0 663 124" fill="none" xmlns="http://www.w3.org/2000/svg">
<path d="M47.7687 81.2334L39.238 81.123L40.4222 52.5439L14.0625 60.1084L11.5938 51.8809L38.0849 44.4434L23.3578 22.3431L30.5115 17.5669L45.2386 39.6672L62.3044 17.7908L68.8578 23.1046L52.0459 44.7181L78.8328 54.333L75.8713 62.3962L48.826 52.7858L47.7687 81.2334Z" fill="#D7F792"/>
<path d="M71.3969 114.292L48.1309 48.0732L114.349 71.3392L82.135 82.0774L71.3969 114.292Z" stroke="white" stroke-width="9" stroke-linejoin="bevel"/>
<path d="M82.1357 82.0781L107.191 107.134" stroke="white" stroke-width="9" stroke-linejoin="bevel"/>
<path d="M145.328 102.949V38.9258H161.656L174.117 72.5703C174.547 73.8021 175.034 75.2917 175.578 77.0391C176.151 78.7865 176.738 80.6198 177.34 82.5391C177.941 84.4583 178.5 86.2773 179.016 87.9961C179.56 89.7148 179.99 91.1471 180.305 92.293H177.512C177.827 91.1471 178.242 89.7148 178.758 87.9961C179.273 86.2773 179.832 84.4583 180.434 82.5391C181.035 80.6198 181.608 78.7865 182.152 77.0391C182.725 75.2917 183.212 73.8021 183.613 72.5703L195.859 38.9258H212.273V102.949H201.102V70.293C201.102 68.8893 201.116 67.2708 201.145 65.4375C201.173 63.5755 201.216 61.6276 201.273 59.5938C201.359 57.5312 201.417 55.4544 201.445 53.3633C201.503 51.2435 201.546 49.224 201.574 47.3047H202.992C202.305 49.4818 201.617 51.6875 200.93 53.9219C200.242 56.1276 199.569 58.2617 198.91 60.3242C198.251 62.3581 197.635 64.2344 197.062 65.9531C196.518 67.6432 196.046 69.0898 195.645 70.293L183.441 102.949H174.16L161.871 70.293C161.47 69.0898 160.969 67.6432 160.367 65.9531C159.794 64.2344 159.178 62.3581 158.52 60.3242C157.861 58.2617 157.173 56.1276 156.457 53.9219C155.741 51.6875 155.025 49.4818 154.309 47.3047H156.027C156.085 49.224 156.128 51.2435 156.156 53.3633C156.214 55.4544 156.271 57.5312 156.328 59.5938C156.385 61.6276 156.428 63.5755 156.457 65.4375C156.486 67.2708 156.5 68.8893 156.5 70.293V102.949H145.328ZM242.695 103.98C238.255 103.98 234.345 102.992 230.965 101.016C227.613 99.0104 224.992 96.2318 223.102 92.6797C221.24 89.1276 220.309 85.0026 220.309 80.3047C220.309 75.6068 221.24 71.4818 223.102 67.9297C224.992 64.349 227.613 61.556 230.965 59.5508C234.345 57.5456 238.255 56.543 242.695 56.543C247.164 56.543 251.074 57.5456 254.426 59.5508C257.777 61.556 260.384 64.349 262.246 67.9297C264.137 71.4818 265.082 75.6068 265.082 80.3047C265.082 85.0026 264.137 89.1276 262.246 92.6797C260.384 96.2318 257.777 99.0104 254.426 101.016C251.074 102.992 247.164 103.98 242.695 103.98ZM242.695 94.9141C245.016 94.9141 247.021 94.3268 248.711 93.1523C250.43 91.9779 251.747 90.3021 252.664 88.125C253.609 85.9193 254.082 83.3125 254.082 80.3047C254.082 77.2682 253.609 74.6615 252.664 72.4844C251.747 70.2786 250.43 68.5885 248.711 67.4141C247.021 66.2109 245.016 65.6094 242.695 65.6094C240.375 65.6094 238.355 66.2109 236.637 67.4141C234.918 68.5885 233.586 70.2786 232.641 72.4844C231.724 74.6615 231.266 77.2682 231.266 80.3047C231.266 83.3411 231.724 85.9479 232.641 88.125C233.586 90.3021 234.918 91.9779 236.637 93.1523C238.355 94.3268 240.375 94.9141 242.695 94.9141ZM290.133 103.852C286.208 103.852 282.757 102.863 279.777 100.887C276.827 98.9102 274.535 96.1458 272.902 92.5938C271.298 89.0417 270.496 84.9167 270.496 80.2188C270.496 75.5781 271.312 71.4818 272.945 67.9297C274.578 64.3776 276.87 61.6133 279.82 59.6367C282.771 57.6602 286.18 56.6719 290.047 56.6719C292.023 56.6719 293.857 56.944 295.547 57.4883C297.266 58.0039 298.812 58.806 300.188 59.8945C301.562 60.9831 302.737 62.3581 303.711 64.0195H303.797V38.9258H314.625V102.949H303.969V96.0312H303.883C302.938 97.7786 301.763 99.2396 300.359 100.414C298.984 101.56 297.423 102.419 295.676 102.992C293.957 103.565 292.109 103.852 290.133 103.852ZM292.668 94.7852C295.046 94.7852 297.108 94.1979 298.855 93.0234C300.603 91.8203 301.964 90.1302 302.938 87.9531C303.911 85.7474 304.398 83.1693 304.398 80.2188C304.398 77.2682 303.911 74.7044 302.938 72.5273C301.964 70.3503 300.603 68.6602 298.855 67.457C297.108 66.2539 295.046 65.6523 292.668 65.6523C290.462 65.6523 288.514 66.2253 286.824 67.3711C285.134 68.4883 283.816 70.1354 282.871 72.3125C281.926 74.4609 281.453 77.0964 281.453 80.2188C281.453 83.3411 281.926 85.9909 282.871 88.168C283.816 90.3451 285.134 91.9922 286.824 93.1094C288.514 94.2266 290.462 94.7852 292.668 94.7852ZM344.273 103.98C339.747 103.98 335.823 102.964 332.5 100.93C329.177 98.8958 326.613 96.1029 324.809 92.5508C323.033 88.9701 322.145 84.888 322.145 80.3047C322.145 75.6927 323.061 71.5964 324.895 68.0156C326.757 64.4349 329.32 61.6276 332.586 59.5938C335.852 57.5599 339.604 56.543 343.844 56.543C347.109 56.543 350.074 57.1159 352.738 58.2617C355.402 59.4076 357.694 61.0404 359.613 63.1602C361.533 65.2513 363.008 67.7435 364.039 70.6367C365.07 73.5013 365.586 76.6667 365.586 80.1328V83.0977H326.441V75.6211H360.172L355.316 77.6406C355.316 75.0625 354.844 72.8424 353.898 70.9805C352.982 69.1185 351.678 67.6862 349.988 66.6836C348.327 65.6523 346.336 65.1367 344.016 65.1367C341.724 65.1367 339.733 65.6523 338.043 66.6836C336.353 67.6862 335.049 69.1185 334.133 70.9805C333.216 72.8424 332.758 75.0625 332.758 77.6406V82.3242C332.758 84.931 333.216 87.2227 334.133 89.1992C335.049 91.1758 336.382 92.7083 338.129 93.7969C339.905 94.8854 342.039 95.4297 344.531 95.4297C346.336 95.4297 347.94 95.1576 349.344 94.6133C350.747 94.069 351.922 93.3099 352.867 92.3359C353.812 91.362 354.486 90.2305 354.887 88.9414H365.027C364.454 91.8919 363.194 94.4987 361.246 96.7617C359.327 99.0247 356.906 100.801 353.984 102.09C351.062 103.35 347.826 103.98 344.273 103.98ZM372.977 102.949V57.5742H383.805V102.949H372.977ZM378.391 50.8281C376.529 50.8281 374.982 50.2409 373.75 49.0664C372.518 47.8633 371.902 46.388 371.902 44.6406C371.902 42.8932 372.518 41.4323 373.75 40.2578C374.982 39.0833 376.514 38.4961 378.348 38.4961C380.21 38.4961 381.757 39.0833 382.988 40.2578C384.22 41.4323 384.836 42.9076 384.836 44.6836C384.836 46.431 384.22 47.8919 382.988 49.0664C381.757 50.2409 380.224 50.8281 378.391 50.8281ZM404.258 77.2969V102.949H393.43V57.5742H404.086V69.1328H401.98C403.441 65.0651 405.49 61.9714 408.125 59.8516C410.789 57.7318 414.083 56.6719 418.008 56.6719C421.188 56.6719 423.995 57.3594 426.43 58.7344C428.865 60.0807 430.77 62.0859 432.145 64.75C433.52 67.4141 434.207 70.694 434.207 74.5898V102.949H423.336V76.3086C423.336 72.9857 422.534 70.4648 420.93 68.7461C419.354 67.0273 417.105 66.168 414.184 66.168C412.293 66.168 410.603 66.5547 409.113 67.3281C407.624 68.1016 406.435 69.3047 405.547 70.9375C404.688 72.5703 404.258 74.6901 404.258 77.2969ZM461.664 104.023C457.997 104.023 454.703 103.451 451.781 102.305C448.859 101.13 446.51 99.4258 444.734 97.1914C442.958 94.9284 441.956 92.1784 441.727 88.9414H452.426C452.655 91.1471 453.543 92.8659 455.09 94.0977C456.665 95.3008 458.799 95.9023 461.492 95.9023C464.099 95.9023 466.147 95.3867 467.637 94.3555C469.155 93.3242 469.914 92.0065 469.914 90.4023C469.914 89.0273 469.355 87.9245 468.238 87.0938C467.15 86.263 465.646 85.6471 463.727 85.2461L455.992 83.6562C451.638 82.7396 448.344 81.1784 446.109 78.9727C443.875 76.7669 442.758 73.9596 442.758 70.5508C442.758 67.7721 443.503 65.3372 444.992 63.2461C446.51 61.1549 448.63 59.5221 451.352 58.3477C454.102 57.1732 457.324 56.5859 461.02 56.5859C464.686 56.5859 467.909 57.2018 470.688 58.4336C473.495 59.6654 475.686 61.4128 477.262 63.6758C478.866 65.9102 479.711 68.5885 479.797 71.7109H469.613C469.585 69.6771 468.797 68.0013 467.25 66.6836C465.732 65.3659 463.741 64.707 461.277 64.707C458.9 64.707 457.023 65.237 455.648 66.2969C454.273 67.3568 453.586 68.6602 453.586 70.207C453.586 71.5534 454.116 72.6562 455.176 73.5156C456.236 74.3464 457.711 74.9766 459.602 75.4062L467.766 77.082C472.263 78.0273 475.572 79.5169 477.691 81.5508C479.84 83.5846 480.914 86.263 480.914 89.5859C480.914 92.5365 480.083 95.1003 478.422 97.2773C476.789 99.4258 474.526 101.087 471.633 102.262C468.74 103.436 465.417 104.023 461.664 104.023ZM488.305 120.91V57.5742H498.961V63.8906H499.09C500.035 62.2865 501.21 60.9544 502.613 59.8945C504.017 58.806 505.578 58.0039 507.297 57.4883C509.044 56.944 510.892 56.6719 512.84 56.6719C516.764 56.6719 520.188 57.6602 523.109 59.6367C526.06 61.6133 528.352 64.3776 529.984 67.9297C531.617 71.4818 532.434 75.5781 532.434 80.2188C532.434 84.9167 531.617 89.0417 529.984 92.5938C528.38 96.1458 526.103 98.9102 523.152 100.887C520.202 102.863 516.75 103.852 512.797 103.852C510.82 103.852 508.987 103.565 507.297 102.992C505.607 102.419 504.074 101.56 502.699 100.414C501.353 99.2682 500.207 97.8359 499.262 96.1172H499.133V120.91H488.305ZM510.262 94.7852C512.496 94.7852 514.444 94.2266 516.105 93.1094C517.796 91.9922 519.113 90.3451 520.059 88.168C521.004 85.9909 521.477 83.3411 521.477 80.2188C521.477 77.0964 521.004 74.4609 520.059 72.3125C519.113 70.1354 517.796 68.4883 516.105 67.3711C514.444 66.2253 512.496 65.6523 510.262 65.6523C507.884 65.6523 505.822 66.2539 504.074 67.457C502.327 68.6602 500.966 70.3503 499.992 72.5273C499.018 74.7044 498.531 77.2682 498.531 80.2188C498.531 83.1693 499.018 85.7474 499.992 87.9531C500.966 90.1302 502.327 91.8203 504.074 93.0234C505.822 94.1979 507.884 94.7852 510.262 94.7852ZM559.977 103.98C555.451 103.98 551.526 102.964 548.203 100.93C544.88 98.8958 542.316 96.1029 540.512 92.5508C538.736 88.9701 537.848 84.888 537.848 80.3047C537.848 75.6927 538.764 71.5964 540.598 68.0156C542.46 64.4349 545.023 61.6276 548.289 59.5938C551.555 57.5599 555.307 56.543 559.547 56.543C562.812 56.543 565.777 57.1159 568.441 58.2617C571.105 59.4076 573.397 61.0404 575.316 63.1602C577.236 65.2513 578.711 67.7435 579.742 70.6367C580.773 73.5013 581.289 76.6667 581.289 80.1328V83.0977H542.145V75.6211H575.875L571.02 77.6406C571.02 75.0625 570.547 72.8424 569.602 70.9805C568.685 69.1185 567.382 67.6862 565.691 66.6836C564.03 65.6523 562.039 65.1367 559.719 65.1367C557.427 65.1367 555.436 65.6523 553.746 66.6836C552.056 67.6862 550.753 69.1185 549.836 70.9805C548.919 72.8424 548.461 75.0625 548.461 77.6406V82.3242C548.461 84.931 548.919 87.2227 549.836 89.1992C550.753 91.1758 552.085 92.7083 553.832 93.7969C555.608 94.8854 557.742 95.4297 560.234 95.4297C562.039 95.4297 563.643 95.1576 565.047 94.6133C566.451 94.069 567.625 93.3099 568.57 92.3359C569.516 91.362 570.189 90.2305 570.59 88.9414H580.73C580.158 91.8919 578.897 94.4987 576.949 96.7617C575.03 99.0247 572.609 100.801 569.688 102.09C566.766 103.35 563.529 103.98 559.977 103.98ZM608.746 103.98C604.335 103.98 600.453 102.978 597.102 100.973C593.779 98.9674 591.186 96.1888 589.324 92.6367C587.491 89.0846 586.574 84.974 586.574 80.3047C586.574 75.6354 587.491 71.5247 589.324 67.9727C591.186 64.3919 593.779 61.599 597.102 59.5938C600.453 57.5599 604.335 56.543 608.746 56.543C611.611 56.543 614.246 56.9727 616.652 57.832C619.059 58.6628 621.164 59.8516 622.969 61.3984C624.773 62.9453 626.22 64.7786 627.309 66.8984C628.426 68.9896 629.099 71.2956 629.328 73.8164H618.715C618.514 72.5846 618.156 71.4674 617.641 70.4648C617.125 69.4622 616.438 68.6029 615.578 67.8867C614.747 67.1419 613.773 66.569 612.656 66.168C611.539 65.7669 610.279 65.5664 608.875 65.5664C606.526 65.5664 604.492 66.168 602.773 67.3711C601.083 68.5742 599.78 70.2786 598.863 72.4844C597.975 74.6901 597.531 77.2969 597.531 80.3047C597.531 83.2839 597.975 85.8763 598.863 88.082C599.78 90.2591 601.083 91.9492 602.773 93.1523C604.464 94.3555 606.497 94.957 608.875 94.957C610.279 94.957 611.525 94.7708 612.613 94.3984C613.73 93.9974 614.69 93.4388 615.492 92.7227C616.294 91.9779 616.953 91.0898 617.469 90.0586C617.984 89.0273 618.371 87.8958 618.629 86.6641H629.328C629.128 89.1562 628.483 91.4622 627.395 93.582C626.335 95.6732 624.888 97.5065 623.055 99.082C621.221 100.629 619.087 101.832 616.652 102.691C614.246 103.551 611.611 103.98 608.746 103.98ZM660.566 57.5742V66.2969H632.551V57.5742H660.566ZM640.457 45.1992H651.328V89.9297C651.328 91.5339 651.658 92.651 652.316 93.2812C652.975 93.9115 654.178 94.2266 655.926 94.2266C656.642 94.2266 657.458 94.2266 658.375 94.2266C659.292 94.2266 660.022 94.2266 660.566 94.2266V102.949C659.822 102.949 658.833 102.949 657.602 102.949C656.398 102.949 655.21 102.949 654.035 102.949C649.395 102.949 645.971 102.018 643.766 100.156C641.56 98.2656 640.457 95.3867 640.457 91.5195V45.1992Z" fill="white"/>
</svg>
