<svg width="663" height="124" viewBox="0 0 663 124" fill="none" xmlns="http://www.w3.org/2000/svg">
<path d="M47.7687 81.2325L39.238 81.122L40.4222 52.5429L14.0625 60.1075L11.5938 51.88L38.0849 44.4424L23.3578 22.3421L30.5115 17.5659L45.2386 39.6662L62.3044 17.7898L68.8578 23.1036L52.0459 44.7171L78.8328 54.332L75.8713 62.3952L48.826 52.7849L47.7687 81.2325Z" fill="#D7F792"/>
<path d="M71.3969 114.291L48.1309 48.0723L114.349 71.3383L82.135 82.0764L71.3969 114.291Z" fill="white" stroke="black" stroke-width="9" stroke-linejoin="bevel"/>
<path d="M82.1357 82.0771L107.191 107.133" stroke="black" stroke-width="9" stroke-linejoin="bevel"/>
<path d="M145.328 102.948V38.9248H161.656L174.117 72.5693C174.547 73.8011 175.034 75.2907 175.578 77.0381C176.151 78.7855 176.738 80.6188 177.34 82.5381C177.941 84.4574 178.5 86.2764 179.016 87.9951C179.56 89.7139 179.99 91.1462 180.305 92.292H177.512C177.827 91.1462 178.242 89.7139 178.758 87.9951C179.273 86.2764 179.832 84.4574 180.434 82.5381C181.035 80.6188 181.608 78.7855 182.152 77.0381C182.725 75.2907 183.212 73.8011 183.613 72.5693L195.859 38.9248H212.273V102.948H201.102V70.292C201.102 68.8883 201.116 67.2699 201.145 65.4365C201.173 63.5745 201.216 61.6266 201.273 59.5928C201.359 57.5303 201.417 55.4535 201.445 53.3623C201.503 51.2425 201.546 49.223 201.574 47.3037H202.992C202.305 49.4808 201.617 51.6865 200.93 53.9209C200.242 56.1266 199.569 58.2607 198.91 60.3232C198.251 62.3571 197.635 64.2334 197.062 65.9521C196.518 67.6423 196.046 69.0889 195.645 70.292L183.441 102.948H174.16L161.871 70.292C161.47 69.0889 160.969 67.6423 160.367 65.9521C159.794 64.2334 159.178 62.3571 158.52 60.3232C157.861 58.2607 157.173 56.1266 156.457 53.9209C155.741 51.6865 155.025 49.4808 154.309 47.3037H156.027C156.085 49.223 156.128 51.2425 156.156 53.3623C156.214 55.4535 156.271 57.5303 156.328 59.5928C156.385 61.6266 156.428 63.5745 156.457 65.4365C156.486 67.2699 156.5 68.8883 156.5 70.292V102.948H145.328ZM242.695 103.979C238.255 103.979 234.345 102.991 230.965 101.015C227.613 99.0094 224.992 96.2308 223.102 92.6787C221.24 89.1266 220.309 85.0016 220.309 80.3037C220.309 75.6058 221.24 71.4808 223.102 67.9287C224.992 64.348 227.613 61.555 230.965 59.5498C234.345 57.5446 238.255 56.542 242.695 56.542C247.164 56.542 251.074 57.5446 254.426 59.5498C257.777 61.555 260.384 64.348 262.246 67.9287C264.137 71.4808 265.082 75.6058 265.082 80.3037C265.082 85.0016 264.137 89.1266 262.246 92.6787C260.384 96.2308 257.777 99.0094 254.426 101.015C251.074 102.991 247.164 103.979 242.695 103.979ZM242.695 94.9131C245.016 94.9131 247.021 94.3258 248.711 93.1514C250.43 91.9769 251.747 90.3011 252.664 88.124C253.609 85.9183 254.082 83.3115 254.082 80.3037C254.082 77.2673 253.609 74.6605 252.664 72.4834C251.747 70.2777 250.43 68.5876 248.711 67.4131C247.021 66.21 245.016 65.6084 242.695 65.6084C240.375 65.6084 238.355 66.21 236.637 67.4131C234.918 68.5876 233.586 70.2777 232.641 72.4834C231.724 74.6605 231.266 77.2673 231.266 80.3037C231.266 83.3402 231.724 85.9469 232.641 88.124C233.586 90.3011 234.918 91.9769 236.637 93.1514C238.355 94.3258 240.375 94.9131 242.695 94.9131ZM290.133 103.851C286.208 103.851 282.757 102.862 279.777 100.886C276.827 98.9092 274.535 96.1449 272.902 92.5928C271.298 89.0407 270.496 84.9157 270.496 80.2178C270.496 75.5771 271.312 71.4808 272.945 67.9287C274.578 64.3766 276.87 61.6123 279.82 59.6357C282.771 57.6592 286.18 56.6709 290.047 56.6709C292.023 56.6709 293.857 56.943 295.547 57.4873C297.266 58.0029 298.812 58.805 300.188 59.8936C301.562 60.9821 302.737 62.3571 303.711 64.0186H303.797V38.9248H314.625V102.948H303.969V96.0303H303.883C302.938 97.7777 301.763 99.2386 300.359 100.413C298.984 101.559 297.423 102.418 295.676 102.991C293.957 103.564 292.109 103.851 290.133 103.851ZM292.668 94.7842C295.046 94.7842 297.108 94.1969 298.855 93.0225C300.603 91.8193 301.964 90.1292 302.938 87.9521C303.911 85.7464 304.398 83.1683 304.398 80.2178C304.398 77.2673 303.911 74.7035 302.938 72.5264C301.964 70.3493 300.603 68.6592 298.855 67.4561C297.108 66.2529 295.046 65.6514 292.668 65.6514C290.462 65.6514 288.514 66.2243 286.824 67.3701C285.134 68.4873 283.816 70.1344 282.871 72.3115C281.926 74.46 281.453 77.0954 281.453 80.2178C281.453 83.3402 281.926 85.9899 282.871 88.167C283.816 90.3441 285.134 91.9912 286.824 93.1084C288.514 94.2256 290.462 94.7842 292.668 94.7842ZM344.273 103.979C339.747 103.979 335.823 102.963 332.5 100.929C329.177 98.8949 326.613 96.1019 324.809 92.5498C323.033 88.9691 322.145 84.887 322.145 80.3037C322.145 75.6917 323.061 71.5954 324.895 68.0146C326.757 64.4339 329.32 61.6266 332.586 59.5928C335.852 57.5589 339.604 56.542 343.844 56.542C347.109 56.542 350.074 57.1149 352.738 58.2607C355.402 59.4066 357.694 61.0394 359.613 63.1592C361.533 65.2503 363.008 67.7425 364.039 70.6357C365.07 73.5003 365.586 76.6657 365.586 80.1318V83.0967H326.441V75.6201H360.172L355.316 77.6396C355.316 75.0615 354.844 72.8415 353.898 70.9795C352.982 69.1175 351.678 67.6852 349.988 66.6826C348.327 65.6514 346.336 65.1357 344.016 65.1357C341.724 65.1357 339.733 65.6514 338.043 66.6826C336.353 67.6852 335.049 69.1175 334.133 70.9795C333.216 72.8415 332.758 75.0615 332.758 77.6396V82.3232C332.758 84.93 333.216 87.2217 334.133 89.1982C335.049 91.1748 336.382 92.7074 338.129 93.7959C339.905 94.8844 342.039 95.4287 344.531 95.4287C346.336 95.4287 347.94 95.1566 349.344 94.6123C350.747 94.068 351.922 93.3089 352.867 92.335C353.812 91.361 354.486 90.2295 354.887 88.9404H365.027C364.454 91.891 363.194 94.4977 361.246 96.7607C359.327 99.0238 356.906 100.8 353.984 102.089C351.062 103.349 347.826 103.979 344.273 103.979ZM372.977 102.948V57.5732H383.805V102.948H372.977ZM378.391 50.8271C376.529 50.8271 374.982 50.2399 373.75 49.0654C372.518 47.8623 371.902 46.387 371.902 44.6396C371.902 42.8923 372.518 41.4313 373.75 40.2568C374.982 39.0824 376.514 38.4951 378.348 38.4951C380.21 38.4951 381.757 39.0824 382.988 40.2568C384.22 41.4313 384.836 42.9066 384.836 44.6826C384.836 46.43 384.22 47.891 382.988 49.0654C381.757 50.2399 380.224 50.8271 378.391 50.8271ZM404.258 77.2959V102.948H393.43V57.5732H404.086V69.1318H401.98C403.441 65.0641 405.49 61.9704 408.125 59.8506C410.789 57.7308 414.083 56.6709 418.008 56.6709C421.188 56.6709 423.995 57.3584 426.43 58.7334C428.865 60.0798 430.77 62.085 432.145 64.749C433.52 67.4131 434.207 70.693 434.207 74.5889V102.948H423.336V76.3076C423.336 72.9847 422.534 70.4639 420.93 68.7451C419.354 67.0264 417.105 66.167 414.184 66.167C412.293 66.167 410.603 66.5537 409.113 67.3271C407.624 68.1006 406.435 69.3037 405.547 70.9365C404.688 72.5693 404.258 74.6891 404.258 77.2959ZM461.664 104.022C457.997 104.022 454.703 103.45 451.781 102.304C448.859 101.129 446.51 99.4248 444.734 97.1904C442.958 94.9274 441.956 92.1774 441.727 88.9404H452.426C452.655 91.1462 453.543 92.8649 455.09 94.0967C456.665 95.2998 458.799 95.9014 461.492 95.9014C464.099 95.9014 466.147 95.3857 467.637 94.3545C469.155 93.3232 469.914 92.0055 469.914 90.4014C469.914 89.0264 469.355 87.9235 468.238 87.0928C467.15 86.262 465.646 85.6462 463.727 85.2451L455.992 83.6553C451.638 82.7386 448.344 81.1774 446.109 78.9717C443.875 76.766 442.758 73.9587 442.758 70.5498C442.758 67.7712 443.503 65.3363 444.992 63.2451C446.51 61.154 448.63 59.5212 451.352 58.3467C454.102 57.1722 457.324 56.585 461.02 56.585C464.686 56.585 467.909 57.2008 470.688 58.4326C473.495 59.6644 475.686 61.4118 477.262 63.6748C478.866 65.9092 479.711 68.5876 479.797 71.71H469.613C469.585 69.6761 468.797 68.0003 467.25 66.6826C465.732 65.3649 463.741 64.7061 461.277 64.7061C458.9 64.7061 457.023 65.236 455.648 66.2959C454.273 67.3558 453.586 68.6592 453.586 70.2061C453.586 71.5524 454.116 72.6553 455.176 73.5146C456.236 74.3454 457.711 74.9756 459.602 75.4053L467.766 77.0811C472.263 78.0264 475.572 79.516 477.691 81.5498C479.84 83.5837 480.914 86.262 480.914 89.585C480.914 92.5355 480.083 95.0993 478.422 97.2764C476.789 99.4248 474.526 101.086 471.633 102.261C468.74 103.435 465.417 104.022 461.664 104.022ZM488.305 120.909V57.5732H498.961V63.8896H499.09C500.035 62.2855 501.21 60.9535 502.613 59.8936C504.017 58.805 505.578 58.0029 507.297 57.4873C509.044 56.943 510.892 56.6709 512.84 56.6709C516.764 56.6709 520.188 57.6592 523.109 59.6357C526.06 61.6123 528.352 64.3766 529.984 67.9287C531.617 71.4808 532.434 75.5771 532.434 80.2178C532.434 84.9157 531.617 89.0407 529.984 92.5928C528.38 96.1449 526.103 98.9092 523.152 100.886C520.202 102.862 516.75 103.851 512.797 103.851C510.82 103.851 508.987 103.564 507.297 102.991C505.607 102.418 504.074 101.559 502.699 100.413C501.353 99.2673 500.207 97.835 499.262 96.1162H499.133V120.909H488.305ZM510.262 94.7842C512.496 94.7842 514.444 94.2256 516.105 93.1084C517.796 91.9912 519.113 90.3441 520.059 88.167C521.004 85.9899 521.477 83.3402 521.477 80.2178C521.477 77.0954 521.004 74.46 520.059 72.3115C519.113 70.1344 517.796 68.4873 516.105 67.3701C514.444 66.2243 512.496 65.6514 510.262 65.6514C507.884 65.6514 505.822 66.2529 504.074 67.4561C502.327 68.6592 500.966 70.3493 499.992 72.5264C499.018 74.7035 498.531 77.2673 498.531 80.2178C498.531 83.1683 499.018 85.7464 499.992 87.9521C500.966 90.1292 502.327 91.8193 504.074 93.0225C505.822 94.1969 507.884 94.7842 510.262 94.7842ZM559.977 103.979C555.451 103.979 551.526 102.963 548.203 100.929C544.88 98.8949 542.316 96.1019 540.512 92.5498C538.736 88.9691 537.848 84.887 537.848 80.3037C537.848 75.6917 538.764 71.5954 540.598 68.0146C542.46 64.4339 545.023 61.6266 548.289 59.5928C551.555 57.5589 555.307 56.542 559.547 56.542C562.812 56.542 565.777 57.1149 568.441 58.2607C571.105 59.4066 573.397 61.0394 575.316 63.1592C577.236 65.2503 578.711 67.7425 579.742 70.6357C580.773 73.5003 581.289 76.6657 581.289 80.1318V83.0967H542.145V75.6201H575.875L571.02 77.6396C571.02 75.0615 570.547 72.8415 569.602 70.9795C568.685 69.1175 567.382 67.6852 565.691 66.6826C564.03 65.6514 562.039 65.1357 559.719 65.1357C557.427 65.1357 555.436 65.6514 553.746 66.6826C552.056 67.6852 550.753 69.1175 549.836 70.9795C548.919 72.8415 548.461 75.0615 548.461 77.6396V82.3232C548.461 84.93 548.919 87.2217 549.836 89.1982C550.753 91.1748 552.085 92.7074 553.832 93.7959C555.608 94.8844 557.742 95.4287 560.234 95.4287C562.039 95.4287 563.643 95.1566 565.047 94.6123C566.451 94.068 567.625 93.3089 568.57 92.335C569.516 91.361 570.189 90.2295 570.59 88.9404H580.73C580.158 91.891 578.897 94.4977 576.949 96.7607C575.03 99.0238 572.609 100.8 569.688 102.089C566.766 103.349 563.529 103.979 559.977 103.979ZM608.746 103.979C604.335 103.979 600.453 102.977 597.102 100.972C593.779 98.9665 591.186 96.1878 589.324 92.6357C587.491 89.0837 586.574 84.973 586.574 80.3037C586.574 75.6344 587.491 71.5238 589.324 67.9717C591.186 64.391 593.779 61.598 597.102 59.5928C600.453 57.5589 604.335 56.542 608.746 56.542C611.611 56.542 614.246 56.9717 616.652 57.8311C619.059 58.6618 621.164 59.8506 622.969 61.3975C624.773 62.9443 626.22 64.7777 627.309 66.8975C628.426 68.9886 629.099 71.2946 629.328 73.8154H618.715C618.514 72.5837 618.156 71.4665 617.641 70.4639C617.125 69.4613 616.438 68.6019 615.578 67.8857C614.747 67.141 613.773 66.568 612.656 66.167C611.539 65.766 610.279 65.5654 608.875 65.5654C606.526 65.5654 604.492 66.167 602.773 67.3701C601.083 68.5732 599.78 70.2777 598.863 72.4834C597.975 74.6891 597.531 77.2959 597.531 80.3037C597.531 83.2829 597.975 85.8753 598.863 88.0811C599.78 90.2581 601.083 91.9482 602.773 93.1514C604.464 94.3545 606.497 94.9561 608.875 94.9561C610.279 94.9561 611.525 94.7699 612.613 94.3975C613.73 93.9964 614.69 93.4378 615.492 92.7217C616.294 91.9769 616.953 91.0889 617.469 90.0576C617.984 89.0264 618.371 87.8949 618.629 86.6631H629.328C629.128 89.1553 628.483 91.4613 627.395 93.5811C626.335 95.6722 624.888 97.5055 623.055 99.0811C621.221 100.628 619.087 101.831 616.652 102.69C614.246 103.55 611.611 103.979 608.746 103.979ZM660.566 57.5732V66.2959H632.551V57.5732H660.566ZM640.457 45.1982H651.328V89.9287C651.328 91.5329 651.658 92.6501 652.316 93.2803C652.975 93.9105 654.178 94.2256 655.926 94.2256C656.642 94.2256 657.458 94.2256 658.375 94.2256C659.292 94.2256 660.022 94.2256 660.566 94.2256V102.948C659.822 102.948 658.833 102.948 657.602 102.948C656.398 102.948 655.21 102.948 654.035 102.948C649.395 102.948 645.971 102.017 643.766 100.155C641.56 98.2646 640.457 95.3857 640.457 91.5186V45.1982Z" fill="black"/>
</svg>
